<svg xmlns="http://www.w3.org/2000/svg" width="960" height="360" viewBox="0 0 960 360" role="img" aria-labelledby="title desc" xml:lang="en">
  <title id="title">Web2Harness — ChatGPT Web × Codex</title>
  <desc id="desc">Reason with web models. Get it done in Codex. Your ChatGPT plan. Your Codex workflow. Put your available web models to work.</desc>
  <defs>
    <linearGradient id="background" x1="0" y1="0" x2="1" y2="1">
      <stop stop-color="#1b1d20"/><stop offset="1" stop-color="#0c0d0f"/>
    </linearGradient>
    <radialGradient id="glow" cx="50%" cy="100%" r="75%">
      <stop stop-color="#555b64" stop-opacity=".2"/><stop offset="1" stop-color="#151619" stop-opacity="0"/>
    </radialGradient>
    <linearGradient id="headline" x1="0" y1="0" x2="0" y2="1">
      <stop stop-color="#f5f5f5"/><stop offset="1" stop-color="#babec5"/>
    </linearGradient>
  </defs>
  <rect x=".5" y=".5" width="959" height="359" rx="24" fill="url(#background)" stroke="#373a40"/>
  <rect x="1" y="1" width="958" height="358" rx="24" fill="url(#glow)"/>
  <svg x="64" y="24" width="48" height="48" viewBox="167.00 154.50 909.00 909.00" aria-hidden="true">
    <path d="M 587 203 L 586 204 L 577 204 L 576 205 L 559 207 L 531 215 L 516 221 L 485 238 L 461 256 L 437 280 L 428 291 L 411 316 L 400 337 L 396 348 L 393 352 L 368 355 L 352 359 L 332 366 L 309 377 L 299 383 L 274 402 L 258 418 L 244 436 L 234 452 L 226 468 L 218 490 L 214 511 L 213 512 L 213 519 L 212 520 L 212 551 L 213 552 L 213 559 L 214 560 L 214 565 L 218 582 L 227 606 L 244 636 L 254 649 L 264 659 L 254 686 L 248 711 L 248 717 L 246 725 L 246 761 L 247 762 L 247 769 L 248 770 L 249 781 L 252 793 L 260 816 L 273 841 L 290 864 L 306 880 L 332 899 L 353 910 L 374 918 L 394 923 L 406 924 L 407 925 L 415 925 L 416 926 L 452 926 L 453 925 L 462 925 L 463 924 L 473 923 L 490 945 L 517 971 L 540 987 L 563 999 L 588 1008 L 609 1012 L 610 1013 L 624 1014 L 625 1015 L 661 1015 L 662 1014 L 670 1014 L 671 1013 L 687 1011 L 714 1003 L 739 992 L 765 976 L 785 960 L 800 945 L 811 932 L 826 910 L 840 881 L 851 881 L 852 880 L 861 880 L 862 879 L 875 878 L 876 877 L 889 875 L 914 867 L 928 860 L 930 860 L 948 850 L 971 833 L 990 814 L 1000 801 L 1009 787 L 1019 766 L 1021 758 L 1024 752 L 1028 731 L 1029 730 L 1030 709 L 1031 708 L 1030 682 L 1029 681 L 1029 675 L 1028 674 L 1026 660 L 1016 631 L 1004 608 L 990 588 L 982 579 L 989 563 L 994 548 L 997 532 L 999 527 L 1000 515 L 1001 514 L 1001 506 L 1002 505 L 1002 469 L 1001 468 L 1001 460 L 1000 459 L 998 443 L 991 419 L 977 389 L 965 371 L 950 353 L 936 340 L 914 324 L 891 312 L 869 304 L 844 298 L 827 297 L 826 296 L 796 296 L 795 297 L 785 297 L 784 298 L 777 298 L 775 299 L 755 273 L 734 252 L 713 236 L 700 228 L 682 219 L 657 210 L 635 206 L 634 205 L 618 204 L 617 203 Z M 586 271 L 617 272 L 618 273 L 635 276 L 652 282 L 668 290 L 679 297 L 693 308 L 706 321 L 704 323 L 673 339 L 666 344 L 631 363 L 624 368 L 605 378 L 598 383 L 586 389 L 579 394 L 574 396 L 567 401 L 518 429 L 510 437 L 503 451 L 503 458 L 502 459 L 503 467 L 508 477 L 515 484 L 528 490 L 535 495 L 545 500 L 549 486 L 562 473 L 592 457 L 604 449 L 616 443 L 628 435 L 684 403 L 723 383 L 738 374 L 761 365 L 778 361 L 783 361 L 784 360 L 814 359 L 815 360 L 823 360 L 824 361 L 838 363 L 863 372 L 882 383 L 897 395 L 907 405 L 920 423 L 930 443 L 936 464 L 937 476 L 938 477 L 938 505 L 937 506 L 935 525 L 932 537 L 929 541 L 850 494 L 845 492 L 833 484 L 828 482 L 818 475 L 811 472 L 799 464 L 760 442 L 756 441 L 742 441 L 729 446 L 718 454 L 711 461 L 706 469 L 703 479 L 708 483 L 735 498 L 779 525 L 791 531 L 820 549 L 832 555 L 844 563 L 849 565 L 861 573 L 917 605 L 934 620 L 949 640 L 958 659 L 962 671 L 964 685 L 965 686 L 966 706 L 965 707 L 964 722 L 961 734 L 951 757 L 937 777 L 920 793 L 904 804 L 890 811 L 873 817 L 852 821 L 851 820 L 851 646 L 846 632 L 842 626 L 836 620 L 791 594 L 790 831 L 789 832 L 789 838 L 785 855 L 776 875 L 761 897 L 743 915 L 733 923 L 716 934 L 690 946 L 672 951 L 662 952 L 661 953 L 653 953 L 652 954 L 633 954 L 632 953 L 618 952 L 606 949 L 590 943 L 575 935 L 562 926 L 541 906 L 541 904 L 543 902 L 562 893 L 605 868 L 612 865 L 631 853 L 712 807 L 721 798 L 727 785 L 727 773 L 721 761 L 715 756 L 692 744 L 688 752 L 680 760 L 646 779 L 610 801 L 603 804 L 550 835 L 537 841 L 535 843 L 529 845 L 521 850 L 519 850 L 502 859 L 492 862 L 489 864 L 469 869 L 463 869 L 462 870 L 436 871 L 435 870 L 425 870 L 424 869 L 413 868 L 388 860 L 370 851 L 349 835 L 333 817 L 321 797 L 314 779 L 311 767 L 310 754 L 309 753 L 309 728 L 310 727 L 310 720 L 311 719 L 311 713 L 314 700 L 317 695 L 486 795 L 498 800 L 509 801 L 510 800 L 518 799 L 528 794 L 558 774 L 562 770 L 545 759 L 533 753 L 528 749 L 504 736 L 492 728 L 487 726 L 480 721 L 475 719 L 463 711 L 451 705 L 446 701 L 441 699 L 434 694 L 429 692 L 324 630 L 304 611 L 291 592 L 281 567 L 279 559 L 279 554 L 278 553 L 278 545 L 277 544 L 278 521 L 284 498 L 292 481 L 306 461 L 323 445 L 336 436 L 356 426 L 381 418 L 383 420 L 383 583 L 384 584 L 384 588 L 389 600 L 398 610 L 445 637 L 444 406 L 445 405 L 445 398 L 446 397 L 447 387 L 452 370 L 460 353 L 477 328 L 497 308 L 506 301 L 523 290 L 545 280 L 566 274 L 576 273 L 577 272 L 585 272 Z M 486 525 L 481 536 L 481 694 L 483 699 L 489 705 L 518 722 L 526 722 L 532 719 L 537 714 L 540 707 L 540 702 L 541 701 L 540 699 L 540 694 L 541 693 L 541 661 L 542 660 L 695 660 L 697 662 L 697 709 L 701 720 L 707 727 L 719 733 L 729 734 L 730 733 L 739 732 L 745 729 L 755 719 L 759 707 L 759 548 L 754 535 L 748 529 L 736 522 L 723 521 L 713 524 L 703 532 L 697 545 L 697 598 L 696 599 L 542 599 L 541 598 L 541 540 L 538 529 L 533 522 L 525 516 L 520 514 L 507 513 L 494 518 Z" fill="#f5f6f7" fill-rule="evenodd" clip-rule="evenodd"/>
  </svg>
  <path d="M128 48h102M778 48h118" stroke="#44484f" stroke-width="1"/>
  <g text-anchor="middle" font-family="Arial, 'Microsoft YaHei', 'PingFang SC', sans-serif">
    <text x="480" y="52" font-size="12" font-weight="700" letter-spacing="2.2" fill="#b9bec7">WEB2HARNESS · CHATGPT WEB × CODEX</text>
    <g font-size="64" font-weight="700" letter-spacing="-2">
      <text x="480" y="139" fill="#f5f6f7">Reason with web models.</text>
      <text x="480" y="217" fill="url(#headline)">Get it done in Codex.</text>
    </g>
    <text x="480" y="290" font-size="20" font-weight="500" fill="#d4d7dc">Your ChatGPT plan. Your Codex workflow. Put your available web models to work.</text>
  </g>
</svg>
